<svg width="181" height="205" viewBox="0 0 181 205" fill="none" xmlns="http://www.w3.org/2000/svg">
<path d="M-143.462 95.6862C-121.097 78.271 -90.594 71.7341 -62.3669 78.3116C-37.8898 84.0194 -16.1552 98.7048 7.61248 107.168C31.3845 115.638 60.9405 116.298 77.1648 97.782C88.3035 85.0707 90.2935 66.1287 86.9296 49.0775C83.5613 32.0207 75.5433 16.1823 68.428 0.216299C61.3181 -15.7538 54.9407 -32.6155 55.2245 -49.8738C55.5918 -71.75 67.5237 -92.6687 85.8974 -103.659" stroke="white" stroke-opacity="0.33" stroke-width="0.688262" stroke-miterlimit="10"/>
<path d="M-136.62 89.0188C-115.655 72.6914 -87.0588 66.5687 -60.5997 72.7268C-37.6547 78.0741 -17.2794 91.8434 4.99872 99.779C27.2866 107.716 54.9895 108.337 70.1961 90.9787C80.6375 79.0599 82.5054 61.3062 79.3485 45.322C76.197 29.3337 68.671 14.4845 62.0023 -0.483968C55.3336 -15.4524 49.3575 -31.2635 49.6291 -47.4368C49.9733 -67.9417 61.1581 -87.5541 78.3859 -97.8515" stroke="white" stroke-opacity="0.33" stroke-width="0.688262" stroke-miterlimit="10"/>
<path d="M-129.782 82.3439C-110.213 67.1098 -83.5265 61.3859 -58.8374 67.1442C-37.4246 72.131 -18.4085 84.9842 2.38541 92.3876C23.1837 99.7965 49.039 100.374 63.2278 84.1733C72.9764 73.0526 74.7125 56.4857 71.768 41.5644C68.8235 26.6432 61.8035 12.7902 55.5814 -1.18075C49.3593 -15.1516 43.7836 -29.9025 44.0342 -45.0019C44.3608 -64.1397 54.7974 -82.4361 70.8749 -92.0462" stroke="white" stroke-opacity="0.33" stroke-width="0.688262" stroke-miterlimit="10"/>
<path d="M-122.943 75.6732C-104.775 61.5268 -79.9949 56.217 -57.0737 61.5559C-37.1942 66.192 -19.5363 78.1193 -0.231961 84.9947C19.0723 91.87 43.0845 92.4091 56.2597 77.3722C65.3058 67.048 66.9253 51.6652 64.1878 37.811C61.4546 23.9625 54.9373 11.0903 49.1607 -1.8733C43.3852 -14.8467 38.2056 -28.5428 38.4396 -42.5628C38.7432 -60.3293 48.4325 -77.3193 63.3598 -86.2423" stroke="white" stroke-opacity="0.33" stroke-width="0.688262" stroke-miterlimit="10"/>
<path d="M-116.1 68.9956C-99.3386 55.9411 -76.4689 51.0399 -55.3069 55.9706C-36.9596 60.2462 -20.6663 71.2616 -2.8462 77.6048C14.9739 83.9479 37.133 84.4473 49.2905 70.5683C57.6394 61.0366 59.1368 46.842 56.6063 34.055C54.0856 21.2694 48.0689 9.39753 42.7346 -2.57414C37.4003 -14.5458 32.6221 -27.1914 32.8385 -40.1221C33.1146 -56.523 42.0567 -72.2068 55.8338 -80.4425" stroke="white" stroke-opacity="0.33" stroke-width="0.688262" stroke-miterlimit="10"/>
</svg>
